<svg width="16" height="10" viewBox="0 0 16 10" fill="none" xmlns="http://www.w3.org/2000/svg">
<path d="M4.875 3.5C4.875 3.6875 4.83854 3.86458 4.76562 4.03125C4.69271 4.19792 4.59375 4.34375 4.46875 4.46875C4.34375 4.59375 4.19792 4.69271 4.03125 4.76562C3.86458 4.83854 3.6875 4.875 3.5 4.875C3.3125 4.875 3.13542 4.83854 2.96875 4.76562C2.80208 4.69271 2.65625 4.59375 2.53125 4.46875C2.40625 4.34375 2.30729 4.19792 2.23438 4.03125C2.16146 3.86458 2.125 3.6875 2.125 3.5C2.125 3.3125 2.16146 3.13542 2.23438 2.96875C2.30729 2.80208 2.40625 2.65625 2.53125 2.53125C2.65625 2.40625 2.80208 2.30729 2.96875 2.23438C3.13542 2.16146 3.3125 2.125 3.5 2.125C3.6875 2.125 3.86458 2.16146 4.03125 2.23438C4.19792 2.30729 4.34375 2.40625 4.46875 2.53125C4.59375 2.65625 4.69271 2.80208 4.76562 2.96875C4.83854 3.13542 4.875 3.3125 4.875 3.5ZM3.5 4.125C3.67188 4.125 3.81771 4.0651 3.9375 3.94531C4.05729 3.82552 4.11979 3.67708 4.125 3.5C4.125 3.32812 4.0651 3.18229 3.94531 3.0625C3.82552 2.94271 3.67708 2.88021 3.5 2.875C3.32812 2.875 3.18229 2.9349 3.0625 3.05469C2.94271 3.17448 2.88021 3.32292 2.875 3.5C2.875 3.67188 2.9349 3.81771 3.05469 3.9375C3.17448 4.05729 3.32292 4.11979 3.5 4.125ZM7.5 5.125C7.6875 5.125 7.86458 5.16146 8.03125 5.23438C8.19792 5.30729 8.34375 5.40625 8.46875 5.53125C8.59375 5.65625 8.69271 5.80208 8.76562 5.96875C8.83854 6.13542 8.875 6.3125 8.875 6.5C8.875 6.6875 8.83854 6.86458 8.76562 7.03125C8.69271 7.19792 8.59375 7.34375 8.46875 7.46875C8.34375 7.59375 8.19792 7.69271 8.03125 7.76562C7.86458 7.83854 7.6875 7.875 7.5 7.875C7.3125 7.875 7.13542 7.83854 6.96875 7.76562C6.80208 7.69271 6.65625 7.59375 6.53125 7.46875C6.40625 7.34375 6.30729 7.19792 6.23438 7.03125C6.16146 6.86458 6.125 6.6875 6.125 6.5C6.125 6.3125 6.16146 6.13542 6.23438 5.96875C6.30729 5.80208 6.40625 5.65625 6.53125 5.53125C6.65625 5.40625 6.80208 5.30729 6.96875 5.23438C7.13542 5.16146 7.3125 5.125 7.5 5.125ZM7.5 7.125C7.67188 7.125 7.81771 7.0651 7.9375 6.94531C8.05729 6.82552 8.11979 6.67708 8.125 6.5C8.125 6.32812 8.0651 6.18229 7.94531 6.0625C7.82552 5.94271 7.67708 5.88021 7.5 5.875C7.32812 5.875 7.18229 5.9349 7.0625 6.05469C6.94271 6.17448 6.88021 6.32292 6.875 6.5C6.875 6.67188 6.9349 6.81771 7.05469 6.9375C7.17448 7.05729 7.32292 7.11979 7.5 7.125ZM6.57812 2H7.42188L4.42188 8H3.57812L6.57812 2ZM11 0L16 5L11 10H0V0H11ZM10.5859 9L14.5859 5L10.5859 1H1V9H10.5859ZM12 4.5C12.1354 4.5 12.2526 4.54948 12.3516 4.64844C12.4505 4.7474 12.5 4.86458 12.5 5C12.5 5.13542 12.4505 5.2526 12.3516 5.35156C12.2526 5.45052 12.1354 5.5 12 5.5C11.8646 5.5 11.7474 5.45052 11.6484 5.35156C11.5495 5.2526 11.5 5.13542 11.5 5C11.5 4.86458 11.5495 4.7474 11.6484 4.64844C11.7474 4.54948 11.8646 4.5 12 4.5Z" fill="#016064"/>
</svg>
