<svg width="24" height="24" viewBox="0 0 24 24" fill="none" xmlns="http://www.w3.org/2000/svg">
<path d="M21.0143 9.33308C21.0143 9.02366 20.8914 8.72692 20.6726 8.50813C20.4538 8.28933 20.1571 8.16642 19.8477 8.16642C19.5383 8.16642 19.2415 8.28933 19.0227 8.50813C18.8039 8.72692 18.681 9.02366 18.681 9.33308H21.0143ZM4.681 9.33308C4.681 9.02366 4.55809 8.72692 4.33929 8.50813C4.1205 8.28933 3.82376 8.16642 3.51434 8.16642C3.20492 8.16642 2.90817 8.28933 2.68938 8.50813C2.47059 8.72692 2.34767 9.02366 2.34767 9.33308H4.681ZM21.3562 12.4913C21.5762 12.7038 21.8709 12.8214 22.1768 12.8187C22.4827 12.816 22.7753 12.6933 22.9916 12.477C23.2079 12.2607 23.3306 11.9681 23.3333 11.6622C23.336 11.3563 23.2184 11.0616 23.0058 10.8416L21.3562 12.4913ZM11.681 1.16642L12.5058 0.341584C12.2871 0.122868 11.9904 0 11.681 0C11.3716 0 11.075 0.122868 10.8562 0.341584L11.681 1.16642ZM0.35617 10.8416C0.244741 10.9492 0.155862 11.0779 0.094718 11.2203C0.0335742 11.3626 0.00139017 11.5157 4.40495e-05 11.6706C-0.00130207 11.8255 0.0282166 11.9792 0.0868777 12.1225C0.145539 12.2659 0.232167 12.3962 0.341709 12.5057C0.45125 12.6153 0.581511 12.7019 0.72489 12.7605C0.868269 12.8192 1.0219 12.8487 1.1768 12.8474C1.33171 12.846 1.4848 12.8138 1.62714 12.7527C1.76948 12.6916 1.89822 12.6027 2.00584 12.4913L0.35617 10.8416ZM5.84767 23.3331H17.5143V20.9998H5.84767V23.3331ZM21.0143 19.8331V9.33308H18.681V19.8331H21.0143ZM4.681 19.8331V9.33308H2.34767V19.8331H4.681ZM23.0058 10.8416L12.5058 0.341584L10.8562 1.99125L21.3562 12.4913L23.0058 10.8416ZM10.8562 0.341584L0.35617 10.8416L2.00584 12.4913L12.5058 1.99125L10.8562 0.341584ZM17.5143 23.3331C18.4426 23.3331 19.3328 22.9643 19.9892 22.308C20.6456 21.6516 21.0143 20.7613 21.0143 19.8331H18.681C18.681 20.1425 18.5581 20.4392 18.3393 20.658C18.1205 20.8768 17.8238 20.9998 17.5143 20.9998V23.3331ZM5.84767 20.9998C5.53825 20.9998 5.2415 20.8768 5.02271 20.658C4.80392 20.4392 4.681 20.1425 4.681 19.8331H2.34767C2.34767 20.7613 2.71642 21.6516 3.3728 22.308C4.02917 22.9643 4.91941 23.3331 5.84767 23.3331V20.9998Z" fill="#007616" fill-opacity="0.6"/>
</svg>
