<svg width="111" height="148" viewBox="0 0 111 148" fill="none" xmlns="http://www.w3.org/2000/svg">
<g clip-path="url(#clip0_699_14337)">
<path d="M4.54183 59.827C5.59912 50.6468 8.48014 42.3724 13.9255 35.1508C23.9269 21.8872 37.2586 14.6711 53.8707 13.6042C55.7075 13.4862 56.9898 13.6533 56.3836 16.2185C55.7923 18.721 56.6284 21.2274 57.5333 23.5966C58.0854 25.042 59.2756 25.879 60.8052 26.0512C66.6782 26.7127 72.0833 25.6814 76.3639 21.2636C77.648 19.9384 78.6901 19.807 80.2988 20.7113C95.2525 29.118 103.493 41.9907 105.771 58.8297C107.202 69.4093 105.406 79.4996 100.317 88.8471C94.3034 99.8937 84.4577 104.966 72.2006 105.528C68.3299 105.706 64.5911 104.534 61.1458 102.515C56.8541 100.001 55.084 96.1564 54.8755 91.427C54.5359 83.7212 56.9601 76.5012 58.9173 69.2048C60.1364 64.66 61.4871 60.1476 62.3023 55.504C63.2082 50.3435 60.8143 47.7722 55.584 48.2859C48.0922 49.0217 40.6245 47.8807 33.1396 48.0116C28.2605 48.0969 23.38 48.1232 18.5001 48.1277C14.4926 48.1314 11.9727 50.8107 13.4269 55.341C16.6094 65.2559 19.1914 75.3628 22.0604 85.3794C23.0397 88.7984 24.4607 91.9814 26.8717 94.7149C30.6392 98.9863 35.2589 100.266 40.8608 99.1176C40.0163 96.1087 39.2598 93.1451 39.1479 89.9998C38.898 82.9711 40.8238 76.3594 42.5448 69.6899C42.9436 68.1445 43.2965 66.5861 43.7392 65.0535C44.3606 62.902 44.7875 60.9679 41.7181 60.2941C40.7199 60.075 40.1148 59.0232 40.3683 57.8705C40.6463 56.6062 41.7032 56.5111 42.7535 56.5066C44.4368 56.4994 46.1258 56.5902 47.8021 56.4811C50.1239 56.33 50.5369 57.3957 50.0304 59.4095C48.6379 64.9466 47.3116 70.5006 45.9769 76.0521C45.1127 79.6469 44.5397 83.2871 44.1063 86.963C42.8671 97.4729 51.7362 105.9 60.1349 107.963C67.5814 109.793 74.8003 109.027 81.9502 106.571C82.7866 106.283 83.5642 105.621 84.7266 105.962C84.5247 107.312 83.4332 107.872 82.4952 108.42C72.8194 114.078 62.4834 117.173 51.1812 115.914C29.4474 113.491 15.1813 101.415 7.30769 81.3959C4.62175 74.5668 3.98072 67.3618 4.54183 59.827ZM71.7153 99.7733C72.3707 99.6228 73.0305 99.4894 73.6808 99.3194C79.981 97.6721 84.5853 94.307 86.0715 87.5266C86.6451 84.9096 87.5894 82.368 88.4513 79.8214C91.2779 71.47 94.5967 63.2732 96.1172 54.5211C96.8189 50.4816 95.0419 48.1991 90.8715 48.1728C84.4776 48.1326 78.0826 48.2195 71.6895 48.1363C69.8467 48.1123 69.0347 48.7261 68.6096 50.5697C65.8736 62.4353 63.0071 74.2707 60.2083 86.122C58.1998 94.6264 62.508 99.9337 71.7153 99.7733ZM66.3294 39.7154C67.5044 35.3645 66.4275 31.9651 63.3497 30.3096C59.9754 28.4946 55.5777 29.5483 53.8088 32.5956C51.8432 35.9815 52.9887 40.8116 56.2277 42.7955C59.655 44.8946 63.7537 43.7649 66.3294 39.7154Z" fill="#165016" style="fill:#165016;fill:color(display-p3 0.0863 0.3137 0.0863);fill-opacity:1;"/>
<path d="M34.3367 140.47C34.6426 138.437 34.9931 136.618 35.1259 134.784C35.2006 133.752 34.8086 132.625 33.5485 132.579C32.1847 132.531 32.0807 133.708 31.994 134.738C31.7941 137.114 32.2755 139.424 32.7056 141.736C33.0803 143.75 32.9422 145.631 31.176 146.977C29.7363 148.075 25.647 148.154 24.1462 147.09C22.3587 145.822 22.0398 144.04 22.4697 141.951C23.1492 138.65 23.2981 135.29 23.2518 131.923C23.2437 131.335 23.2548 130.743 23.3213 130.16C23.9714 124.462 26.7275 123.17 31.5185 126.403C35.2099 124.087 38.8769 123.927 42.3561 127.096C44.4144 125.499 46.5668 124.429 49.1539 124.744C52.8457 125.194 55.0231 127.558 55.1213 131.639C55.2103 135.34 55.4132 139.004 56.0307 142.665C56.5626 145.82 54.8205 147.599 51.3869 147.798C47.5388 148.02 45.7758 146.716 45.8364 143.391C45.8806 140.967 46.2726 138.549 46.5047 136.128C46.5603 135.547 46.7102 134.946 46.6163 134.387C46.4616 133.467 46.1865 132.465 44.9448 132.575C43.8828 132.669 43.7078 133.551 43.6161 134.426C43.3759 136.718 43.8487 138.954 44.2439 141.178C44.6461 143.442 44.9125 145.728 42.6445 147.04C40.5191 148.269 38.0099 148.297 35.8796 147.085C33.7318 145.864 33.9018 143.579 34.2046 141.43C34.2398 141.18 34.262 140.929 34.3367 140.47Z" fill="#165016" style="fill:#165016;fill:color(display-p3 0.0863 0.3137 0.0863);fill-opacity:1;"/>
<path d="M108.436 130.791C108.063 131.052 107.86 131.235 107.626 131.296C104.53 132.102 104.016 132.973 104.74 136.134C104.925 136.942 105.216 137.539 106.171 137.604C108.913 137.791 109.937 139.631 110.062 142.029C110.192 144.533 108.284 147.022 106.077 147.589C101.891 148.665 98.5075 146.954 96.9465 142.906C95.8351 140.023 95.7711 136.994 95.8133 133.952C95.8267 132.987 96.1004 131.887 94.8333 131.35C93.4801 130.778 93.3353 132.06 92.7793 132.66C90.8802 134.708 89.2756 134.762 86.5578 132.715C84.9462 134.088 85.5452 135.919 85.6667 137.562C85.7899 139.23 86.2996 140.867 86.4502 142.534C86.7753 146.132 85.0729 147.785 81.1265 147.864C77.4726 147.937 75.6963 146.237 76.0609 142.662C76.5299 138.063 76.9495 133.47 77.1871 128.849C77.4052 124.609 80.7047 123.554 85.0154 126.239C87.6569 124.269 90.3752 124.134 93.0725 126.396C94.9124 125.281 96.4807 124.288 96.584 121.719C96.6758 119.438 98.4877 118.534 100.72 118.595C103.003 118.656 104.459 119.812 104.631 122.053C104.756 123.698 105.081 124.53 106.943 124.887C109.593 125.396 110.194 127.944 108.436 130.791Z" fill="#165016" style="fill:#165016;fill:color(display-p3 0.0863 0.3137 0.0863);fill-opacity:1;"/>
<path d="M63.021 132.303C61.9074 133.877 60.5794 134.37 58.9765 133.604C57.4323 132.866 57.3099 131.443 57.4192 129.936C57.5023 128.792 57.8705 127.751 58.72 127.016C61.8264 124.329 65.46 124.213 69.1737 125.223C72.4136 126.105 74.3495 128.423 74.709 131.714C75.1182 135.46 75.3822 139.246 75.3403 143.011C75.2928 147.273 71.6054 149.196 67.9062 147.042C67.1729 146.615 66.6963 146.483 65.875 146.83C61.658 148.607 58.301 147.786 56.9478 144.755C55.2403 140.931 56.9593 136.404 60.8673 134.543C62.428 133.799 64.0347 133.153 65.7984 132.385C64.7702 131.256 63.9723 131.185 63.021 132.303ZM64.4195 136.884C63.9441 137.342 63.547 137.946 64.4959 138.143C65.6601 138.384 66.3363 137.753 66.402 136.552C65.692 136.054 65.2172 136.606 64.4195 136.884Z" fill="#165016" style="fill:#165016;fill:color(display-p3 0.0863 0.3137 0.0863);fill-opacity:1;"/>
<path d="M58.0204 14.4404C59.1295 9.69924 61.9346 6.70443 66.1562 4.89188C70.8074 2.89484 75.7527 1.92551 80.7682 0.377441C81.7286 2.73415 81.423 5.04132 81.2206 7.20582C80.255 17.5317 74.0154 24.0823 63.4698 23.8609C60.9613 23.8083 60.3487 22.8401 61.6506 20.7183C64.0686 16.7777 66.6102 12.9063 70.4562 10.1275C65.3568 12.2171 62.2041 16.4732 59.0078 21.1392C57.3636 18.7592 58.0988 16.6437 58.0204 14.4404Z" fill="#165016" style="fill:#165016;fill:color(display-p3 0.0863 0.3137 0.0863);fill-opacity:1;"/>
<path d="M5.20201 147.788C1.35195 147.33 -0.138737 145.552 0.555286 142.039C1.27607 138.39 1.52235 134.731 1.44114 131.033C1.41127 129.672 1.645 128.353 2.09074 127.079C2.70903 125.312 4.12226 124.703 5.85229 124.72C7.49109 124.736 8.82103 125.335 9.34169 127.045C9.55941 127.76 9.73537 128.501 9.81571 129.242C10.2759 133.489 10.2718 137.764 10.7096 142.023C11.1887 146.685 10.1382 147.57 5.20201 147.788Z" fill="#165016" style="fill:#165016;fill:color(display-p3 0.0863 0.3137 0.0863);fill-opacity:1;"/>
<path d="M1.14355 120.475C1.32066 117.154 3.16931 115.491 6.11335 115.765C9.00752 116.034 10.5811 117.768 10.2388 120.349C9.96154 122.439 8.50549 123.359 6.63284 123.614C4.16127 123.952 2.15047 123.228 1.14355 120.475Z" fill="#165016" style="fill:#165016;fill:color(display-p3 0.0863 0.3137 0.0863);fill-opacity:1;"/>
</g>
<defs>
<clipPath id="clip0_699_14337">
<rect width="110.116" height="148" fill="white" style="fill:white;fill-opacity:1;"/>
</clipPath>
</defs>
</svg>
