<svg width="18" height="18" viewBox="0 0 18 18" fill="none" xmlns="http://www.w3.org/2000/svg">
<path d="M13.75 6.75C15.4069 6.75 16.75 5.40685 16.75 3.75C16.75 2.09315 15.4069 0.75 13.75 0.75C12.0931 0.75 10.75 2.09315 10.75 3.75C10.75 5.40685 12.0931 6.75 13.75 6.75Z" stroke="black" stroke-width="1.5" stroke-linecap="round" stroke-linejoin="round"/>
<path d="M3.75 16.75C5.40685 16.75 6.75 15.4069 6.75 13.75C6.75 12.0931 5.40685 10.75 3.75 10.75C2.09315 10.75 0.75 12.0931 0.75 13.75C0.75 15.4069 2.09315 16.75 3.75 16.75Z" stroke="black" stroke-width="1.5" stroke-linecap="round" stroke-linejoin="round"/>
<path d="M10.75 10.75H16.75V15.75C16.75 16.0152 16.6446 16.2696 16.4571 16.4571C16.2696 16.6446 16.0152 16.75 15.75 16.75H11.75C11.4848 16.75 11.2304 16.6446 11.0429 16.4571C10.8554 16.2696 10.75 16.0152 10.75 15.75V10.75ZM0.75 0.75H6.75V5.75C6.75 6.01522 6.64464 6.26957 6.45711 6.45711C6.26957 6.64464 6.01522 6.75 5.75 6.75H1.75C1.48478 6.75 1.23043 6.64464 1.04289 6.45711C0.855357 6.26957 0.75 6.01522 0.75 5.75V0.75Z" stroke="black" stroke-width="1.5" stroke-linecap="round" stroke-linejoin="round"/>
</svg>
