<svg width="24" height="24" viewBox="0 0 24 24" fill="none" xmlns="http://www.w3.org/2000/svg">
<path d="M9.56131 22.6255C10.7356 22.6255 11.6876 21.6736 11.6876 20.4993C11.6876 19.325 10.7356 18.373 9.56131 18.373C8.38701 18.373 7.43506 19.325 7.43506 20.4993C7.43506 21.6736 8.38701 22.6255 9.56131 22.6255Z" stroke="black" stroke-width="1.5" stroke-linecap="round" stroke-linejoin="round"/>
<path d="M18.825 22.6255C19.9993 22.6255 20.9512 21.6736 20.9512 20.4993C20.9512 19.325 19.9993 18.373 18.825 18.373C17.6507 18.373 16.6987 19.325 16.6987 20.4993C16.6987 21.6736 17.6507 22.6255 18.825 22.6255Z" stroke="black" stroke-width="1.5" stroke-linecap="round" stroke-linejoin="round"/>
<path d="M4.6325 3.63125L7.145 11.5862C7.53125 12.8087 7.72375 13.42 8.095 13.8725C8.42 14.2725 8.84375 14.5813 9.3225 14.7725C9.86625 14.9888 10.5063 14.9887 11.7888 14.9887H16.6075C17.89 14.9887 18.53 14.9888 19.0725 14.7725C19.5525 14.5813 19.975 14.2725 20.3013 13.8725C20.6713 13.42 20.8637 12.8087 21.2512 11.5862L21.7625 9.96625L22.0625 9.00875L22.4763 7.69625C22.6239 7.22813 22.6592 6.73181 22.5793 6.2475C22.4994 5.76319 22.3065 5.30452 22.0163 4.90864C21.7261 4.51277 21.3467 4.19082 20.9089 3.96889C20.471 3.74696 19.9871 3.63129 19.4962 3.63125H4.6325ZM4.6325 3.63125L4.61875 3.585C4.56597 3.4082 4.5076 3.23311 4.44375 3.06C4.19069 2.41943 3.76154 1.86353 3.20591 1.45653C2.65027 1.04954 1.99082 0.80806 1.30375 0.76C1.175 0.75 1.03375 0.75 0.75 0.75" stroke="black" stroke-width="1.5" stroke-linecap="round" stroke-linejoin="round"/>
</svg>
