<svg width="20" height="23" viewBox="0 0 20 23" fill="none" xmlns="http://www.w3.org/2000/svg">
<path d="M2.5 20.3714H6.25V13.8C6.25 13.4276 6.37 13.1157 6.61 12.8642C6.85 12.6128 7.14667 12.4866 7.5 12.4857H12.5C12.8542 12.4857 13.1512 12.6119 13.3912 12.8642C13.6312 13.1166 13.7508 13.4285 13.75 13.8V20.3714H17.5V8.54286L10 2.62857L2.5 8.54286V20.3714ZM0 20.3714V8.54286C0 8.12667 0.0887498 7.73238 0.26625 7.36C0.44375 6.98762 0.688333 6.68095 1 6.44L8.5 0.525714C8.9375 0.175238 9.4375 0 10 0C10.5625 0 11.0625 0.175238 11.5 0.525714L19 6.44C19.3125 6.68095 19.5575 6.98762 19.735 7.36C19.9125 7.73238 20.0008 8.12667 20 8.54286V20.3714C20 21.0943 19.755 21.7133 19.265 22.2285C18.775 22.7437 18.1867 23.0009 17.5 23H12.5C12.1458 23 11.8492 22.8738 11.61 22.6215C11.3708 22.3691 11.2508 22.0572 11.25 21.6857V15.1143H8.75V21.6857C8.75 22.0581 8.63 22.3705 8.39 22.6228C8.15 22.8751 7.85333 23.0009 7.5 23H2.5C1.8125 23 1.22417 22.7428 0.735 22.2285C0.245833 21.7142 0.000833333 21.0952 0 20.3714Z" fill="black"/>
</svg>
