<svg width="26" height="23" viewBox="0 0 26 23" fill="none" xmlns="http://www.w3.org/2000/svg">
<path d="M12.9896 3.58368L12.3371 4.21202C12.4216 4.29972 12.523 4.36949 12.6351 4.41714C12.7472 4.46479 12.8678 4.48935 12.9896 4.48935C13.1114 4.48935 13.232 4.46479 13.3441 4.41714C13.4562 4.36949 13.5575 4.29972 13.6421 4.21202L12.9896 3.58368ZM9.87933 19.0769C8.0475 17.633 6.04529 16.2228 4.45633 14.4345C2.9 12.68 1.8125 10.6343 1.8125 7.97839H0C0 11.1998 1.34125 13.6576 3.10179 15.638C4.82971 17.5834 7.03371 19.1422 8.75679 20.5003L9.87933 19.0769ZM1.8125 7.97839C1.8125 5.38047 3.28062 3.20064 5.28525 2.28352C7.23308 1.39297 9.85033 1.6286 12.3371 4.21202L13.6421 2.95656C10.6937 -0.108984 7.26692 -0.615276 4.53125 0.635349C1.856 1.85939 0 4.70139 0 7.97839H1.8125ZM8.75679 20.5003C9.37667 20.9885 10.0412 21.5081 10.7143 21.902C11.3873 22.2959 12.1558 22.6149 12.9896 22.6149V20.8024C12.615 20.8024 12.1752 20.6574 11.629 20.3372C11.0816 20.0182 10.5149 19.5784 9.87933 19.0769L8.75679 20.5003ZM17.2224 20.5003C18.9455 19.141 21.1495 17.5846 22.8774 15.638C24.6379 13.6563 25.9792 11.1998 25.9792 7.97839H24.1667C24.1667 10.6343 23.0792 12.68 21.5228 14.4345C19.9339 16.2228 17.9317 17.633 16.0998 19.0769L17.2224 20.5003ZM25.9792 7.97839C25.9792 4.70139 24.1244 1.85939 21.4479 0.635349C18.7122 -0.615276 15.2878 -0.108984 12.3371 2.95535L13.6421 4.21202C16.1288 1.62981 18.7461 1.39297 20.6939 2.28352C22.6985 3.20064 24.1667 5.37927 24.1667 7.97839H25.9792ZM16.0998 19.0769C15.4642 19.5784 14.8975 20.0182 14.3502 20.3372C13.8028 20.6562 13.3642 20.8024 12.9896 20.8024V22.6149C13.8233 22.6149 14.5918 22.2947 15.2649 21.902C15.9391 21.5081 16.6025 20.9885 17.2224 20.5003L16.0998 19.0769Z" fill="black"/>
</svg>
